<svg xmlns="http://www.w3.org/2000/svg" xmlns:xlink="http://www.w3.org/1999/xlink" width="800" height="118" xmlns:v="https://vecta.io/nano"><defs><path d="M263.57 285.5l-3.08-.12c-1.8 0-3.52.99-5.17 2.96v12.79a1.19 1.19 0 0 1-.35.88c-.23.23-.52.34-.87.34h-4.48c-.36 0-.65-.11-.88-.34s-.34-.52-.34-.88v-19.48c0-.36.12-.66.35-.89s.52-.35.87-.35h4.48a1.19 1.19 0 0 1 .88.35c.23.23.34.53.34.89v1.26c1.36-.99 2.67-1.72 3.93-2.19s2.91-.71 4.95-.71c.36 0 .66.12.89.35s.35.52.35.87v3.04a1.19 1.19 0 0 1-.35.88c-.23.23-.53.34-.89.34h-.63v.01z" id="A"/><path d="M362.24 313.16a2.69 2.69 0 0 1-1.29.33c-.49 0-.87-.14-1.15-.42s-.42-.69-.42-1.25V309h-1.03v-.8h1.03v-1.16l1.01-.17v1.33h1.74l-.11.8h-1.63v2.65c0 .66.24.99.73.99a1.84 1.84 0 0 0 .41-.05c.13-.03.28-.08.43-.15l.28.72z" id="B"/><path d="M367.69 310.95h-3.58c.01.59.15 1.01.43 1.28s.64.4 1.07.4c.31 0 .58-.04.82-.12a4.33 4.33 0 0 0 .77-.36l.39.72c-.64.42-1.31.62-2.02.62-.75 0-1.35-.21-1.8-.63s-.67-1.08-.67-1.99c0-.52.09-.99.28-1.41s.47-.76.84-1.02c.37-.25.83-.38 1.37-.38.45 0 .84.09 1.16.28.32.18.56.44.73.76s.25.69.25 1.1l-.04.75zm-3.07-1.74c-.23.24-.38.57-.45 1h2.56v-.05c0-.44-.1-.77-.3-.99s-.48-.33-.85-.33c-.41.01-.73.13-.96.37z" id="C"/></defs><g stroke="null"><g fill-rule="evenodd" stroke-width="2.339"><path fill="#1c72b8" d="M156.394 87.24V52.852v-.257c-.14-6.503-5.497-11.766-12.024-11.766h-.094-62.575-.094c-6.62 0-12.024 5.404-12.024 12.024v.047 34.294.047.257c.14 6.503 5.497 11.766 12.024 11.766h2.807l-3.673 16.539 27.79-16.539h35.837c6.527 0 11.883-5.263 12.024-11.766v-.257z"/><path fill="#000003" opacity=".2" d="M87.011 63.73c1.099 6.41 8.562 18.527 21.498 35.557h35.837c6.527 0 11.883-5.263 12.024-11.766v-.257-.07-17.077l-18.48-17.24c1.31 23.346-35.323 23.182-50.879 10.854h0zm50.902-10.854c-2.48 3.322-5.053 6.176-7.696 8.608l7.696-8.608z"/><path fill="#fff" d="M87.011 63.73c18.574 12.936 36.212 8.702 50.902-10.854 1.591 29.1-42.387 43.768-50.902 10.854z"/><path fill="#1c72b8" d="M51.033 40.829H9.722h-.07a7.97 7.97 0 0 0-7.93 7.766v.164.023 22.644.047.164a7.97 7.97 0 0 0 7.93 7.766h23.673l15.93 10.924V79.403h1.848a7.97 7.97 0 0 0 7.93-7.766v-.164-.047-22.644-.023c-.013-4.374-3.556-7.917-7.93-7.93h-.07z"/><path fill="#000003" opacity=".2" d="M27.22 49.297l12.024-2.854 19.767 9.053V71.45v.047.164a7.97 7.97 0 0 1-7.93 7.766h-1.848v10.924l-15.93-10.924-7.509-7.883 4.936-4.842h0l-2.877-2.877 5.17-6.339 4.632-6.597-4.374 4.281-6.059-5.872z"/><path fill="#fff" d="M40.764 49.788c-.023-3.205-2.901-4.725-6.784-4.702-1.965.023-4.187.304-5.755.772-.561.14-.725.421-.795.912l-.515 3.135c0 .07-.023.187-.023.257 0 .281.14.491.491.491h.117l5.1-.421c1.193 0 1.474.374 1.474 1.006 0 1.801-1.216 2.924-2.339 4.117l-2.059 2.222c-1.637 1.778-1.942 2.901-2.222 4.725l-.14.959v.14c0 .281.187.561.538.561l3.509-.023c.398 0 .866-.257.936-.678l.164-.982c.14-.749.632-1.099 2.573-3.135l1.965-2.059c2.035-2.105 3.79-4.234 3.766-7.298h0zm-8.725 16.936c0-.351-.257-.585-.608-.585h-4.14c-.398 0-.725.327-.795.702l-.772 4.421v.117c0 .351.257.561.608.561l4.14-.023c.398 0 .725-.281.795-.678l.772-4.445v-.07z"/><path fill="#e30239" d="M98.778.734H60.227c-4.077.013-7.379 3.315-7.392 7.392v.023 21.053.023.164c.094 4 3.369 7.228 7.392 7.228h1.731V46.77l14.831-10.152h22.012c4 0 7.298-3.228 7.392-7.228v-.164-.023V8.149v-.023-.164c-.117-3.977-3.415-7.228-7.415-7.228z"/><path fill="#000003" opacity=".2" d="M75.315 29.928l6.831 6.714h9.638L79.993 25.6l-4.679 4.328h0zm8.632-25.1l22.223 14.995v9.427.023.164c-.094 4-3.369 7.228-7.392 7.228h-6.222L77.303 22.582l6.643-17.755z"/><path fill="#fff" d="M84.181 5.272c0-.304-.234-.515-.561-.515l-4.094.023c-.351 0-.795.304-.819.655l-2.129 16.351v.094c0 .304.257.585.585.585l2.784-.023c.351 0 .725-.327.772-.702l3.439-16.375c.023 0 .023-.07.023-.094h0zm-3.509 19.697c0-.304-.211-.491-.538-.491l-3.86.023a.77.77 0 0 0-.749.632l-.702 4.14v.14c0 .304.211.515.538.515l3.86-.023c.351 0 .678-.304.749-.655l.702-4.14v-.14z"/></g><g transform="matrix(2.33926 0 0 2.33926 -1826.21 -1553.5)" fill="#1c72b8"><path d="M854.064 695.813l2.62.34c1.88 0 3.2-1.38 3.94-4.14-2.27 0-4.16-.68-5.69-2.05s-2.83-3.8-3.92-7.3l-2.98-9.67c-.04-.11-.06-.23-.06-.37s.08-.31.25-.51.42-.31.75-.32h4.18c.39 0 .76.13 1.11.39s.58.58.69.97l2.62 8.49c.65 2.08 1.32 3.52 1.99 4.32s1.47 1.2 2.39 1.2l3.98-14.01c.11-.39.32-.71.63-.97a1.59 1.59 0 0 1 1.05-.39h4.22c.33 0 .58.11.74.32s.24.39.24.53-.01.26-.04.35l-5.25 18.7c-.93 3.31-2.09 5.67-3.47 7.09-1.38 1.41-3.16 2.12-5.33 2.12-2.18 0-3.71-.08-4.61-.24s-1.47-.36-1.69-.59c-.23-.23-.34-.5-.34-.81v-2.2c0-.36.11-.66.34-.89a1.19 1.19 0 0 1 .88-.35h.76v-.01zm23.57-4.56c-2.08-1.92-3.12-4.75-3.12-8.5 0-3.74 1.04-6.57 3.12-8.49s5.07-2.87 8.98-2.87c3.9 0 6.9.96 8.98 2.87s3.12 4.74 3.12 8.49c0 3.74-1.04 6.58-3.12 8.5s-5.08 2.88-8.98 2.88c-3.91 0-6.9-.96-8.98-2.88zm5.06-13.69c-.83 1.08-1.24 2.81-1.24 5.19s.41 4.11 1.24 5.21c.83 1.09 2.13 1.64 3.91 1.64s3.09-.55 3.92-1.64 1.25-2.83 1.25-5.21-.42-4.1-1.25-5.19c-.83-1.08-2.14-1.62-3.92-1.62-1.78-.01-3.08.53-3.91 1.62z"/><use x="654.244" y="391.373" xlink:href="#A"/><path d="M922.804 684.503v-11.47c0-.36.12-.66.35-.89s.52-.35.87-.35h4.48c.35 0 .64.12.87.35s.35.53.35.89v11.47c0 3.2 1.27 4.8 3.8 4.8 1.67 0 3.46-.96 5.38-2.88v-13.39c0-.36.12-.66.35-.89s.52-.35.87-.35h4.46c.36 0 .66.12.89.35s.35.53.35.89v19.48c0 .35-.12.64-.35.87s-.53.35-.89.35h-4.46c-.35 0-.64-.12-.87-.35s-.35-.52-.35-.87v-1.28c-2.29 1.93-4.74 2.9-7.34 2.9s-4.71-.79-6.34-2.37c-1.61-1.58-2.42-4-2.42-7.26zm28.21 8.01v-19.48c0-.36.12-.66.35-.89s.52-.35.87-.35h4.48a1.19 1.19 0 0 1 .88.35c.23.23.34.53.34.89v1.26c.96-.93 1.91-1.65 2.83-2.15.93-.5 2.04-.75 3.35-.75 3.11 0 5.47 1.28 7.07 3.84 2.48-2.58 5.03-3.86 7.64-3.85s4.67.79 6.19 2.36c1.51 1.57 2.27 3.99 2.27 7.28v11.49c0 .36-.11.65-.34.88s-.52.34-.88.34h-4.46c-.36 0-.66-.12-.89-.35s-.35-.52-.35-.87v-11.49c0-3.2-1.16-4.8-3.48-4.78-1.42 0-2.88 1.02-4.38 3.06a12.43 12.43 0 0 1 .12 1.72v11.49a1.19 1.19 0 0 1-.35.88c-.23.23-.52.34-.87.34h-4.46c-.36 0-.66-.12-.89-.35s-.35-.52-.35-.87v-11.49c0-3.2-1.16-4.8-3.48-4.78-1.48 0-2.9.95-4.26 2.86v13.41a1.19 1.19 0 0 1-.35.88c-.23.23-.52.34-.87.34h-4.5c-.36 0-.65-.11-.88-.34a1.19 1.19 0 0 1-.35-.88zm41.45-26.25c0-.36.12-.66.35-.89s.52-.35.87-.35h4.48c.35 0 .64.12.87.35s.35.53.35.89v6.15c2.16-.68 4.09-1.02 5.79-1.02 3.28 0 5.89.98 7.83 2.93 1.94 1.96 2.9 4.77 2.9 8.46 0 7.57-4.24 11.35-12.71 11.35-1.94 0-3.94-.22-6.02-.65s-3.65-.96-4.71-1.59v-25.63zm6.93 10.77v11.81c1.15.31 2.61.46 4.38.46s3.05-.51 3.83-1.54 1.17-2.69 1.17-4.99c0-2.29-.38-3.96-1.15-4.99s-2.07-1.55-3.89-1.55c-1.17 0-2.62.27-4.34.8zm20.46 7.47v-11.47c0-.36.12-.66.35-.89s.52-.35.87-.35h4.48c.35 0 .64.12.87.35s.35.53.35.89v11.47c0 3.2 1.27 4.8 3.8 4.8 1.67 0 3.46-.96 5.38-2.88v-13.39c0-.36.12-.66.35-.89s.52-.35.87-.35h4.46c.36 0 .66.12.89.35s.35.53.35.89v19.48c0 .35-.12.64-.35.87s-.53.35-.89.35h-4.46c-.35 0-.64-.12-.87-.35s-.35-.52-.35-.87v-1.28c-2.3 1.93-4.74 2.9-7.34 2.9s-4.71-.79-6.34-2.37c-1.6-1.58-2.42-4-2.42-7.26zm36.78 9.63c-2.79 0-5.12-.98-7-2.94s-2.81-4.77-2.81-8.44c0-3.66.97-6.47 2.91-8.43s4.55-2.93 7.84-2.93c1.69 0 3.62.34 5.79 1.02v-6.15c0-.36.12-.66.35-.89s.52-.35.87-.35h4.46c.36 0 .66.12.89.35s.35.53.35.89v26.25c0 .35-.12.64-.35.87s-.53.35-.89.35h-3.84a1.19 1.19 0 0 1-.88-.35c-.23-.23-.34-.52-.34-.87v-.62c-2.11 1.49-4.56 2.24-7.35 2.24zm-1.52-16.34c-.76 1.03-1.14 2.69-1.14 4.97s.36 3.94 1.08 4.98 1.8 1.56 3.25 1.56 3.13-.6 5.06-1.8v-10.47c-1.72-.53-3.17-.8-4.34-.8-1.85 0-3.15.52-3.91 1.56zm20.35 6.71v-11.47c0-.36.12-.66.35-.89s.52-.35.87-.35h4.48c.35 0 .64.12.87.35s.35.53.35.89v11.47c0 3.2 1.27 4.8 3.8 4.8 1.67 0 3.46-.96 5.38-2.88v-13.39c0-.36.12-.66.35-.89s.52-.35.87-.35h4.46c.36 0 .66.12.89.35s.35.53.35.89v19.48c0 .35-.12.64-.35.87s-.53.35-.89.35h-4.46c-.35 0-.64-.12-.87-.35s-.35-.52-.35-.87v-1.28c-2.3 1.93-4.74 2.9-7.34 2.9s-4.71-.79-6.34-2.37c-1.61-1.58-2.42-4-2.42-7.26z"/><use y="391.373" x="855.284" xlink:href="#A"/><use x="654.244" y="391.373" xlink:href="#B"/><use x="654.244" y="391.373" xlink:href="#C"/><path d="M1025.734 701.973l2.24 2.68v.07h-1.23l-2.17-2.69v2.69h-1.01v-8.07l1.01-.12v5.42l2.18-2.37h1.12v.07l-2.14 2.32zm7.24 2.72c-.37-.11-.71-.29-1.02-.52l.45-.72c.57.41 1.17.61 1.78.61.35 0 .62-.06.81-.18s.28-.3.28-.53a.61.61 0 0 0-.25-.49c-.17-.14-.46-.26-.89-.37l-.36-.09c-.55-.14-.95-.33-1.2-.56s-.38-.54-.38-.92c0-.29.08-.55.25-.77a1.6 1.6 0 0 1 .69-.52c.29-.13.62-.19.99-.19.35 0 .69.04 1.02.12.32.08.65.22.99.42l-.41.72c-.32-.17-.6-.29-.83-.36s-.49-.1-.75-.1c-.28 0-.5.06-.66.17s-.24.26-.24.45c0 .16.06.29.19.38s.35.18.67.26l.36.09c.45.12.8.25 1.07.4s.47.33.59.53.19.46.19.75a1.47 1.47 0 0 1-.24.83c-.16.24-.4.42-.71.56-.31.13-.69.2-1.14.2-.47 0-.88-.06-1.25-.17zm5.02-6.26a.72.72 0 0 1-.26-.26c-.07-.11-.1-.23-.1-.35 0-.13.03-.25.1-.36a.72.72 0 0 1 .26-.26c.11-.06.23-.1.35-.1.13 0 .25.03.36.1a.72.72 0 0 1 .26.26c.07.11.1.23.1.36a.62.62 0 0 1-.1.35c-.07.11-.16.2-.26.26a.72.72 0 0 1-.36.1c-.12 0-.24-.03-.35-.1zm-.14 6.28v-5.14l1.01-.12v5.26h-1.01zm6.28-.18a2.69 2.69 0 0 1-1.29.33c-.49 0-.87-.14-1.15-.42s-.42-.69-.42-1.25v-2.82h-1.03v-.8h1.03v-1.16l1.01-.17v1.33h1.74l-.11.8h-1.63v2.65c0 .66.24.99.73.99a1.84 1.84 0 0 0 .41-.05c.13-.03.28-.08.43-.15l.28.72z"/><use y="391.373" x="681.884" xlink:href="#C"/><use y="391.373" x="695.404" xlink:href="#B"/><path d="M1063.374 699.463v5.26h-.9l-.06-.39c-.6.35-1.21.53-1.83.53-.48 0-.87-.13-1.17-.4s-.45-.68-.45-1.23v-3.65l1.01-.12v3.47c0 .26.03.46.09.62.06.15.17.26.31.33s.34.1.59.1c.38 0 .84-.14 1.41-.43v-3.97l1-.12zm-3.59-.97c-.1-.06-.18-.14-.25-.24a.62.62 0 0 1-.09-.32c0-.11.03-.23.09-.33a.64.64 0 0 1 .25-.24c.11-.06.21-.09.33-.09a.63.63 0 0 1 .33.09c.1.06.18.14.25.24a.55.55 0 0 1 .09.33c0 .12-.03.22-.09.32a.64.64 0 0 1-.25.24c-.11.06-.21.09-.33.09a.63.63 0 0 1-.33-.09zm2.18 0c-.1-.06-.18-.14-.25-.24a.62.62 0 0 1-.09-.32c0-.11.03-.23.09-.33a.64.64 0 0 1 .25-.24c.11-.06.21-.09.33-.09a.63.63 0 0 1 .33.09c.1.06.18.14.25.24a.55.55 0 0 1 .09.33c0 .12-.03.22-.09.32a.64.64 0 0 1-.25.24c-.11.06-.21.09-.33.09a.63.63 0 0 1-.33-.09zm10.49 1.32c.27.25.4.66.4 1.22v3.68h-1.01v-3.27c0-.29-.03-.51-.08-.67-.06-.16-.14-.28-.26-.35s-.28-.11-.49-.11c-.23 0-.47.03-.72.1s-.49.16-.7.26c.02.16.02.27.02.35v3.68h-1.01v-3.27c0-.29-.03-.51-.08-.67s-.13-.28-.25-.35-.28-.11-.49-.11a2.45 2.45 0 0 0-.69.1c-.24.07-.47.15-.69.25v4.05h-1.01v-5.14l1.01-.12v.49c.6-.34 1.19-.52 1.76-.52.58 0 .99.19 1.22.58a4.7 4.7 0 0 1 .96-.41c.36-.11.71-.16 1.05-.16.44.01.8.14 1.06.39zm9.88-.24v.07l-1.96 5.43c-.17.48-.36.86-.55 1.14-.2.29-.42.49-.66.62-.25.13-.54.19-.88.19s-.68-.06-1.02-.18l.27-.77a2.29 2.29 0 0 0 .67.11c.18 0 .33-.03.46-.08s.25-.16.37-.32.24-.39.36-.7l.14-.38h-.27l-1.97-5.07v-.07h1.07l1.21 3.29.13.35.19.55.29-.9 1.13-3.29h1.02v.01zm1.87 4.93c-.37-.24-.64-.56-.82-.97s-.27-.87-.27-1.39c0-.63.12-1.14.35-1.54a2.07 2.07 0 0 1 .95-.88 3.27 3.27 0 0 1 1.36-.28c.55 0 1 .12 1.37.36s.64.56.82.97.27.87.27 1.38c0 .63-.12 1.15-.35 1.55a2.07 2.07 0 0 1-.95.88 3.27 3.27 0 0 1-1.36.28c-.55 0-1-.12-1.37-.36zm2.98-2.37c0-.57-.12-1.03-.37-1.37s-.62-.51-1.11-.51c-.55 0-.94.17-1.18.5s-.36.79-.36 1.38c0 .58.13 1.04.38 1.38s.63.52 1.13.52c1 0 1.51-.63 1.51-1.9zm5.54-2.67l.35.07-.19 1.04c-.27-.09-.51-.14-.73-.14-.25 0-.48.05-.69.17-.21.11-.41.32-.61.62v3.5h-1.01v-5.15l1.01-.11v.74c.2-.25.42-.44.68-.57s.53-.19.82-.19a1.45 1.45 0 0 1 .37.02zm6.08 0v5.26h-.9l-.06-.39c-.6.35-1.21.53-1.83.53-.48 0-.87-.13-1.17-.4s-.45-.68-.45-1.23v-3.65l1.01-.12v3.47c0 .26.03.46.09.62.06.15.17.26.31.33s.34.1.59.1c.38 0 .84-.14 1.41-.43v-3.97l1-.12zm9.08.35c.27.25.4.66.4 1.22v3.68h-1.01v-3.27c0-.29-.03-.51-.08-.67-.06-.16-.14-.28-.26-.35s-.28-.11-.49-.11c-.23 0-.47.03-.72.1s-.49.16-.7.26c.02.16.02.27.02.35v3.68h-1.01v-3.27c0-.29-.03-.51-.08-.67s-.13-.28-.25-.35-.28-.11-.49-.11a2.45 2.45 0 0 0-.69.1c-.24.07-.47.15-.69.25v4.05h-1.01v-5.14l1.01-.12v.49c.6-.34 1.19-.52 1.76-.52.58 0 .99.19 1.22.58a4.7 4.7 0 0 1 .96-.41c.36-.11.71-.16 1.05-.16.44.01.79.14 1.06.39zm2.36 4.9v-8.07l1.01-.12v8.19h-1.01zm6.48-4.86c.3.27.45.7.45 1.29v3.58h-.92l-.06-.45c-.54.39-1.16.59-1.87.59-.3 0-.56-.06-.8-.17-.23-.11-.42-.27-.54-.48-.13-.21-.19-.44-.19-.71 0-.43.15-.79.46-1.07s.71-.5 1.22-.63a7.28 7.28 0 0 1 1.69-.22v-.26c0-.35-.07-.61-.21-.77s-.38-.24-.72-.24c-.57 0-1.17.2-1.78.61l-.45-.7c.75-.52 1.54-.77 2.36-.77.61-.02 1.06.12 1.36.4zm-2.67 4c.12.1.3.15.55.15.53 0 1.05-.16 1.56-.47v-1.22c-.68.03-1.23.14-1.65.32s-.63.43-.63.76a.55.55 0 0 0 .17.46zm7.95-4.39l.35.07-.19 1.04c-.27-.09-.51-.14-.73-.14-.25 0-.48.05-.69.17-.21.11-.41.32-.61.62v3.5h-1.01v-5.15l1.01-.11v.74c.2-.25.42-.44.68-.57s.53-.19.82-.19c.14-.01.27 0 .37.02z"/></g></g></svg>